<svg xmlns="http://www.w3.org/2000/svg" viewBox="0 0 32 32" fill="none">
  <defs>
    <linearGradient id="bg-gradient" x1="0%" y1="0%" x2="100%" y2="100%">
      <stop offset="0%" style="stop-color:#7c3aed;stop-opacity:1" />
      <stop offset="100%" style="stop-color:#a855f7;stop-opacity:1" />
    </linearGradient>
    <linearGradient id="doc-gradient" x1="0%" y1="0%" x2="100%" y2="100%">
      <stop offset="0%" style="stop-color:#ffffff;stop-opacity:1" />
      <stop offset="100%" style="stop-color:#f3f4f6;stop-opacity:1" />
    </linearGradient>
  </defs>
  
  <!-- Background rounded square -->
  <rect x="2" y="2" width="28" height="28" rx="6" fill="url(#bg-gradient)" />
  
  <!-- Document shape -->
  <path d="M11 6h6l6 6v14a2 2 0 0 1-2 2H11a2 2 0 0 1-2-2V8a2 2 0 0 1 2-2z" fill="url(#doc-gradient)" />
  
  <!-- Document fold -->
  <path d="M17 6v6h6" fill="none" stroke="#e5e7eb" stroke-width="1" />
  <path d="M17 6l6 6h-5a1 1 0 0 1-1-1V6z" fill="#e5e7eb" />
  
  <!-- Speed arrow (instant) -->
  <path d="M13 20l3-3 3 3" stroke="#7c3aed" stroke-width="2.5" stroke-linecap="round" stroke-linejoin="round" />
  <path d="M16 17v6" stroke="#7c3aed" stroke-width="2.5" stroke-linecap="round" />
</svg>
